<svg width="111" height="181" viewBox="0 0 111 181" fill="none" xmlns="http://www.w3.org/2000/svg">
<path d="M52.778 72.3831C87.3937 72.1021 100.5 92.9998 99.5 115.5" stroke="black" stroke-width="20"/>
<path d="M51.497 170.952C29.8955 170.669 10.5908 152.618 11.5113 130.895C12.4879 107.847 31 91.8983 52.5311 91.8983" stroke="black" stroke-width="20"/>
<path d="M99.5 114.5C99.5 142.5 72.6913 152.087 51.7781 152" stroke="black" stroke-width="20"/>
<path d="M51 11.2318C87.4996 11.0619 100.9 36.0002 101 57.5" stroke="black" stroke-width="20"/>
<path d="M51 40.5V21C23.8 21 4 43.5 2 62H22.5C26.1 46.8 43 41.3333 51 40.5Z" fill="black"/>
<path d="M22.5 62H2L1.5 134H21.5L22.5 62Z" fill="black"/>
</svg>
