<svg width="110" height="179" viewBox="0 0 110 179" fill="none" xmlns="http://www.w3.org/2000/svg">
<path d="M58.5103 108.456C23.8963 108.906 10.6883 88.0968 11.5787 65.6188" stroke="black" stroke-width="20"/>
<path d="M59.3108 10C80.9134 10.1773 100.306 28.1133 99.4917 49.8143C98.6276 72.8399 80.1936 88.8592 58.6628 88.9638" stroke="black" stroke-width="20"/>
<path d="M11.5 68.5C11.5 41 38.2088 28.9454 59.1222 28.9306" stroke="black" stroke-width="20"/>
<path d="M60.5863 169.526C24.088 169.874 10.5663 145.03 10.3614 123.557" stroke="black" stroke-width="20"/>
<path d="M60.4436 140.293L60.5387 159.769C87.7384 159.637 107.428 137.067 109.338 118.58L89 119C85.4741 134.199 68.4395 139.421 60.4436 140.293Z" fill="black"/>
<path d="M109.202 119H89L89.5 47L109.5 46L109.202 119Z" fill="black"/>
</svg>
