<svg width="101" height="219" viewBox="0 0 101 219" fill="none" xmlns="http://www.w3.org/2000/svg">
<path d="M51.5645 11.0085C66.7515 10.721 90.7944 24.3341 90.611 50.0522C90.4275 75.7703 68.9095 90.2694 51 90.1417" stroke="black" stroke-width="20"/>
<path d="M11.2135 72.2237C11.0569 41.615 34.8995 30.3665 52.9293 30.2742" stroke="black" stroke-width="20"/>
<path d="M32 99H51.9949V119H32V99Z" fill="black"/>
<path d="M32 119H51.9949V139H32V119Z" fill="black"/>
<path d="M31 199C31 185.794 42.5 179 51 179V199V219C43.5 219 31 215.5 31 199Z" fill="black"/>
<path d="M71.0053 179C71.0089 192.206 59.5107 199.003 51.0107 199.005L51.0053 179.005L51 159.005C58.5 159.003 71.0009 162.5 71.0053 179Z" fill="black"/>
</svg>
