<svg width="81" height="200" viewBox="0 0 81 200" fill="none" xmlns="http://www.w3.org/2000/svg">
<path d="M20 140.066V120.106C27.5 119.352 40 122.852 40 122.852V144.352C40 144.352 31 139.853 20 140.066Z" fill="black"/>
<path d="M79.9999 160H60C60 160 60 134 40 124.5V103C83 118 79.9999 160 79.9999 160Z" fill="black"/>
<path d="M40 136.5V115C31 119 25 119.5 20 120V140.253C25 140 34 139 40 136.5Z" fill="black"/>
<path d="M80 60H60C60 73.5 54.5 88.5 40 95V117C70 109 80 79.5 80 60Z" fill="black"/>
<path d="M10 199.5L10 0" stroke="black" stroke-width="20"/>
<path d="M70 159V180" stroke="black" stroke-width="20"/>
</svg>
