<svg width="161" height="141" viewBox="0 0 161 141" fill="none" xmlns="http://www.w3.org/2000/svg">
<path d="M9.99996 60.9998C10.0243 49.8134 17.5652 31.0162 40.0651 31.0651C62.0651 31.113 70.0252 49.4354 69.9998 61.1303" stroke="black" stroke-width="20"/>
<path d="M10 61V141" stroke="black" stroke-width="20"/>
<path d="M150 41V120.827" stroke="black" stroke-width="20"/>
<path d="M90.0049 41.0205C90.0023 25.0205 103.507 10.5471 120 11.0157C137.5 11.5129 150.002 25.5109 150.005 41.0109" stroke="black" stroke-width="20"/>
<path d="M80 81H60C60 92 66 101.5 80 101.5V81Z" fill="black"/>
<path d="M79.6595 61.1018L79.7571 81.1016C90.9442 81.047 100.068 75.1 99.9999 61.1001L79.6595 61.1018Z" fill="black"/>
<path d="M80 62V41H100V62H80Z" fill="black"/>
<path d="M60 81V61H80V81H60Z" fill="black"/>
<path d="M10 60V141" stroke="black" stroke-width="20"/>
</svg>
