<svg width="161" height="142" viewBox="0 0 161 142" fill="none" xmlns="http://www.w3.org/2000/svg">
<path d="M150.187 80.9997C150.197 92.1861 142.715 111.007 120.215 111.028C98.2155 111.049 90.198 92.7521 90.1868 81.0571" stroke="black" stroke-width="20"/>
<path d="M10.2501 101.438L10 21.6117" stroke="black" stroke-width="20"/>
<path d="M70.2449 101.229C70.2976 117.229 56.8386 131.745 40.3439 131.328C22.8423 130.886 10.2963 116.927 10.2452 101.427" stroke="black" stroke-width="20"/>
<path d="M80.1244 61.2189L100.124 61.1562C100.09 50.1563 94.0601 40.6751 80.0602 40.719L80.1244 61.2189Z" fill="black"/>
<path d="M80.5272 81.1161L80.367 61.1167C69.1801 61.2063 60.0747 67.1819 60.1869 81.1814L80.5272 81.1161Z" fill="black"/>
<path d="M80.1839 80.2189L80.2497 101.219L60.2498 101.281L60.184 80.2815L80.1839 80.2189Z" fill="black"/>
<path d="M100.124 61.1563L100.187 81.1562L80.1871 81.2189L80.1244 61.219L100.124 61.1563Z" fill="black"/>
<path d="M149.936 81.9999L149.936 0.999732" stroke="black" stroke-width="20"/>
</svg>
